<mxfile host="app.diagrams.net" modified="2022-08-25T13:41:12.204Z" agent="5.0 (Macintosh; Intel Mac OS X 10_15_7) AppleWebKit/537.36 (KHTML, like Gecko) Chrome/104.0.0.0 Safari/537.36" etag="iA-qwF_9CWLIWWP7OrqY" version="20.2.7" type="github">
  <diagram name="Page-1" id="97916047-d0de-89f5-080d-49f4d83e522f">
    <mxGraphModel dx="1581" dy="737" grid="1" gridSize="10" guides="1" tooltips="1" connect="1" arrows="1" fold="1" page="1" pageScale="1.5" pageWidth="1169" pageHeight="827" background="none" math="0" shadow="0">
      <root>
        <mxCell id="0" />
        <mxCell id="1" parent="0" />
        <mxCell id="0nxCwqBTvq34lqj69ZZ7-71" value="知識" style="swimlane;fontStyle=0;childLayout=stackLayout;horizontal=1;startSize=30;horizontalStack=0;resizeParent=1;resizeParentMax=0;resizeLast=0;collapsible=1;marginBottom=0;" vertex="1" parent="1">
          <mxGeometry x="788" y="395" width="140" height="120" as="geometry">
            <mxRectangle x="788" y="395" width="60" height="30" as="alternateBounds" />
          </mxGeometry>
        </mxCell>
        <mxCell id="0nxCwqBTvq34lqj69ZZ7-72" value="エンジニアリング" style="text;strokeColor=none;fillColor=none;align=left;verticalAlign=middle;spacingLeft=4;spacingRight=4;overflow=hidden;points=[[0,0.5],[1,0.5]];portConstraint=eastwest;rotatable=0;" vertex="1" parent="0nxCwqBTvq34lqj69ZZ7-71">
          <mxGeometry y="30" width="140" height="30" as="geometry" />
        </mxCell>
        <mxCell id="0nxCwqBTvq34lqj69ZZ7-73" value="マネジメント" style="text;strokeColor=none;fillColor=none;align=left;verticalAlign=middle;spacingLeft=4;spacingRight=4;overflow=hidden;points=[[0,0.5],[1,0.5]];portConstraint=eastwest;rotatable=0;" vertex="1" parent="0nxCwqBTvq34lqj69ZZ7-71">
          <mxGeometry y="60" width="140" height="30" as="geometry" />
        </mxCell>
        <mxCell id="0nxCwqBTvq34lqj69ZZ7-74" value="人材" style="text;strokeColor=none;fillColor=none;align=left;verticalAlign=middle;spacingLeft=4;spacingRight=4;overflow=hidden;points=[[0,0.5],[1,0.5]];portConstraint=eastwest;rotatable=0;" vertex="1" parent="0nxCwqBTvq34lqj69ZZ7-71">
          <mxGeometry y="90" width="140" height="30" as="geometry" />
        </mxCell>
        <mxCell id="0nxCwqBTvq34lqj69ZZ7-75" value="ブランド" style="swimlane;fontStyle=0;childLayout=stackLayout;horizontal=1;startSize=30;horizontalStack=0;resizeParent=1;resizeParentMax=0;resizeLast=0;collapsible=1;marginBottom=0;" vertex="1" parent="1">
          <mxGeometry x="1045" y="515" width="140" height="120" as="geometry">
            <mxRectangle x="1045" y="515" width="90" height="30" as="alternateBounds" />
          </mxGeometry>
        </mxCell>
        <mxCell id="0nxCwqBTvq34lqj69ZZ7-76" value="SNS" style="text;strokeColor=none;fillColor=none;align=left;verticalAlign=middle;spacingLeft=4;spacingRight=4;overflow=hidden;points=[[0,0.5],[1,0.5]];portConstraint=eastwest;rotatable=0;" vertex="1" parent="0nxCwqBTvq34lqj69ZZ7-75">
          <mxGeometry y="30" width="140" height="30" as="geometry" />
        </mxCell>
        <mxCell id="0nxCwqBTvq34lqj69ZZ7-77" value="キャリア" style="text;strokeColor=none;fillColor=none;align=left;verticalAlign=middle;spacingLeft=4;spacingRight=4;overflow=hidden;points=[[0,0.5],[1,0.5]];portConstraint=eastwest;rotatable=0;" vertex="1" parent="0nxCwqBTvq34lqj69ZZ7-75">
          <mxGeometry y="60" width="140" height="30" as="geometry" />
        </mxCell>
        <mxCell id="0nxCwqBTvq34lqj69ZZ7-78" value="ブログ" style="text;strokeColor=none;fillColor=none;align=left;verticalAlign=middle;spacingLeft=4;spacingRight=4;overflow=hidden;points=[[0,0.5],[1,0.5]];portConstraint=eastwest;rotatable=0;" vertex="1" parent="0nxCwqBTvq34lqj69ZZ7-75">
          <mxGeometry y="90" width="140" height="30" as="geometry" />
        </mxCell>
        <mxCell id="0nxCwqBTvq34lqj69ZZ7-94" style="edgeStyle=orthogonalEdgeStyle;rounded=0;orthogonalLoop=1;jettySize=auto;html=1;entryX=0;entryY=0.5;entryDx=0;entryDy=0;" edge="1" parent="1" source="0nxCwqBTvq34lqj69ZZ7-81" target="0nxCwqBTvq34lqj69ZZ7-84">
          <mxGeometry relative="1" as="geometry" />
        </mxCell>
        <mxCell id="0nxCwqBTvq34lqj69ZZ7-81" value="心理学" style="rounded=0;whiteSpace=wrap;html=1;" vertex="1" parent="1">
          <mxGeometry x="568" y="515" width="120" height="60" as="geometry" />
        </mxCell>
        <mxCell id="0nxCwqBTvq34lqj69ZZ7-83" style="edgeStyle=orthogonalEdgeStyle;rounded=0;orthogonalLoop=1;jettySize=auto;html=1;exitX=1;exitY=0.5;exitDx=0;exitDy=0;entryX=0.5;entryY=0;entryDx=0;entryDy=0;" edge="1" parent="1" source="0nxCwqBTvq34lqj69ZZ7-73" target="0nxCwqBTvq34lqj69ZZ7-75">
          <mxGeometry relative="1" as="geometry" />
        </mxCell>
        <mxCell id="0nxCwqBTvq34lqj69ZZ7-97" style="edgeStyle=orthogonalEdgeStyle;rounded=0;orthogonalLoop=1;jettySize=auto;html=1;entryX=0;entryY=0;entryDx=120;entryDy=50;entryPerimeter=0;" edge="1" parent="1" source="0nxCwqBTvq34lqj69ZZ7-84" target="0nxCwqBTvq34lqj69ZZ7-96">
          <mxGeometry relative="1" as="geometry" />
        </mxCell>
        <mxCell id="0nxCwqBTvq34lqj69ZZ7-99" style="edgeStyle=orthogonalEdgeStyle;rounded=0;orthogonalLoop=1;jettySize=auto;html=1;entryX=0.5;entryY=0;entryDx=0;entryDy=0;entryPerimeter=0;" edge="1" parent="1" source="0nxCwqBTvq34lqj69ZZ7-84" target="0nxCwqBTvq34lqj69ZZ7-98">
          <mxGeometry relative="1" as="geometry" />
        </mxCell>
        <mxCell id="0nxCwqBTvq34lqj69ZZ7-84" value="武器連戦" style="ellipse;whiteSpace=wrap;html=1;aspect=fixed;" vertex="1" parent="1">
          <mxGeometry x="788" y="705" width="140" height="140" as="geometry" />
        </mxCell>
        <mxCell id="0nxCwqBTvq34lqj69ZZ7-85" style="edgeStyle=orthogonalEdgeStyle;rounded=0;orthogonalLoop=1;jettySize=auto;html=1;entryX=1;entryY=0.5;entryDx=0;entryDy=0;" edge="1" parent="1" source="0nxCwqBTvq34lqj69ZZ7-78" target="0nxCwqBTvq34lqj69ZZ7-84">
          <mxGeometry relative="1" as="geometry" />
        </mxCell>
        <mxCell id="0nxCwqBTvq34lqj69ZZ7-86" style="edgeStyle=orthogonalEdgeStyle;rounded=0;orthogonalLoop=1;jettySize=auto;html=1;entryX=1;entryY=0.5;entryDx=0;entryDy=0;" edge="1" parent="1" source="0nxCwqBTvq34lqj69ZZ7-77" target="0nxCwqBTvq34lqj69ZZ7-84">
          <mxGeometry relative="1" as="geometry">
            <mxPoint x="918" y="695" as="targetPoint" />
          </mxGeometry>
        </mxCell>
        <mxCell id="0nxCwqBTvq34lqj69ZZ7-87" style="edgeStyle=orthogonalEdgeStyle;rounded=0;orthogonalLoop=1;jettySize=auto;html=1;entryX=1;entryY=0.5;entryDx=0;entryDy=0;" edge="1" parent="1" source="0nxCwqBTvq34lqj69ZZ7-76" target="0nxCwqBTvq34lqj69ZZ7-84">
          <mxGeometry relative="1" as="geometry" />
        </mxCell>
        <mxCell id="0nxCwqBTvq34lqj69ZZ7-92" style="edgeStyle=orthogonalEdgeStyle;rounded=0;orthogonalLoop=1;jettySize=auto;html=1;entryX=0.5;entryY=0;entryDx=0;entryDy=0;" edge="1" parent="1" source="0nxCwqBTvq34lqj69ZZ7-72" target="0nxCwqBTvq34lqj69ZZ7-84">
          <mxGeometry relative="1" as="geometry" />
        </mxCell>
        <mxCell id="0nxCwqBTvq34lqj69ZZ7-93" style="edgeStyle=orthogonalEdgeStyle;rounded=0;orthogonalLoop=1;jettySize=auto;html=1;entryX=0.5;entryY=0;entryDx=0;entryDy=0;" edge="1" parent="1" source="0nxCwqBTvq34lqj69ZZ7-73" target="0nxCwqBTvq34lqj69ZZ7-84">
          <mxGeometry relative="1" as="geometry">
            <mxPoint x="898" y="675" as="targetPoint" />
          </mxGeometry>
        </mxCell>
        <mxCell id="0nxCwqBTvq34lqj69ZZ7-96" value="武器庫" style="shape=cube;whiteSpace=wrap;html=1;boundedLbl=1;backgroundOutline=1;darkOpacity=0.05;darkOpacity2=0.1;" vertex="1" parent="1">
          <mxGeometry x="568" y="890" width="120" height="80" as="geometry" />
        </mxCell>
        <mxCell id="0nxCwqBTvq34lqj69ZZ7-98" value="Actor" style="shape=umlActor;verticalLabelPosition=bottom;verticalAlign=top;html=1;outlineConnect=0;" vertex="1" parent="1">
          <mxGeometry x="843" y="970" width="30" height="60" as="geometry" />
        </mxCell>
        <mxCell id="0nxCwqBTvq34lqj69ZZ7-102" style="edgeStyle=orthogonalEdgeStyle;rounded=0;orthogonalLoop=1;jettySize=auto;html=1;entryX=0.5;entryY=0;entryDx=0;entryDy=0;" edge="1" parent="1" source="0nxCwqBTvq34lqj69ZZ7-74" target="0nxCwqBTvq34lqj69ZZ7-84">
          <mxGeometry relative="1" as="geometry" />
        </mxCell>
      </root>
    </mxGraphModel>
  </diagram>
</mxfile>
